<svg width="400" height="520" style="box-shadow: grey 0px 0px 9px 1px; font-size: 16px; padding: 10px; margin: 10px;" xmlns="http://www.w3.org/2000/svg">
    <text x="124.421875" y="16" style="font-size:20px;">Hello world chart</text>
    <path d="M 200 40 A 200 200 0 0 1 228.1452993077781 41.990297897109144 L 200 240 Z" fill="#505783" opacity="1"></path>
    <text x="207.0538959042311" y="140.24909748492362" fill="white" opacity="0">2%</text>
    <rect x="20" y="460" width="15" height="15" fill="#505783"></rect>
    <text x="36" y="476">abc</text>
    <path d="M 228.1452993077781 41.990297897109144 A 200 200 0 0 1 282.20634587952435 57.675792344691644 L 200 240 Z" fill="#878427" opacity="1"></path>
    <text x="227.8652116576492" y="143.96078936562208" fill="white" opacity="0">4%</text>
    <rect x="66.796875" y="460" width="15" height="15" fill="#878427"></rect>
    <text x="82.796875" y="476">hebbb</text>
    <path d="M 282.20634587952435 57.675792344691644 A 200 200 0 0 1 349.88206876722506 107.5788330286399 L 200 240 Z" fill="#105875" opacity="1"></path>
    <text x="259.34820220673566" y="159.51527539446744" fill="white" opacity="0">7%</text>
    <rect x="132.2890625" y="460" width="15" height="15" fill="#105875"></rect>
    <text x="148.2890625" y="476">world</text>
    <path d="M 349.88206876722506 107.5788330286399 A 200 200 0 0 1 397.48214100231905 208.3645138311392 L 200 240 Z" fill="#581133" opacity="1"></path>
    <text x="290.4224970913085" y="197.2943561133624" fill="white" opacity="0">9%</text>
    <rect x="191.5234375" y="460" width="15" height="15" fill="#581133"></rect>
    <text x="207.5234375" y="476">label4</text>
    <path d="M 397.48214100231905 208.3645138311392 A 200 200 0 0 1 324.30331145057187 396.6802053943705 L 200 240 Z" fill="#255677" opacity="1"></path>
    <text x="293.20966859024395" y="276.22095638296827" fill="white" opacity="0">17%</text>
    <rect x="255.2265625" y="460" width="15" height="15" fill="#255677"></rect>
    <text x="271.2265625" y="476">lb5</text>
    <path d="M 324.30331145057187 396.6802053943705 A 200 200 0 0 1 270.4637745397295 427.1760040112358 L 200 240 Z" fill="#229413" opacity="1"></path>
    <text x="249.28502023842657" y="327.01141752722964" fill="white" opacity="0">5%</text>
    <rect x="297.578125" y="460" width="15" height="15" fill="#229413"></rect>
    <text x="313.578125" y="476">lb6</text>
    <path d="M 270.4637745397295 427.1760040112358 A 200 200 0 0 1 176.05440158734274 438.5613464817857 L 200 240 Z" fill="#540132" opacity="1"></path>
    <text x="211.97279920632863" y="339.28067324089284" fill="white" opacity="0">8%</text>
    <rect x="339.9296875" y="460" width="15" height="15" fill="#540132"></rect>
    <text x="355.9296875" y="476">lhh7g</text>
    <path d="M 176.05440158734274 438.5613464817857 A 200 200 0 0 1 45.537961595122255 367.04911920910774 L 200 240 Z" fill="#171628" opacity="1"></path>
    <text x="151.948410845532" y="327.6986019257446" fill="white" opacity="0">12%</text>
    <rect x="20" y="480" width="15" height="15" fill="#171628"></rect>
    <text x="36" y="496">label 8abn</text>
    <path d="M 45.537961595122255 367.04911920910774 A 200 200 0 0 1 4.034631093725778 200.03033413414806 L 200 240 Z" fill="#847176" opacity="1"></path>
    <text x="102.95148044575474" y="264.1160704164106" fill="white" opacity="0">14%</text>
    <rect x="114.84375" y="480" width="15" height="15" fill="#847176"></rect>
    <text x="130.84375" y="496">gdsgDG</text>
    <path d="M 4.034631093725778 200.03033413414806 A 200 200 0 0 1 136.185835194199 50.45382522947588 L 200 240 Z" fill="#487460" opacity="1"></path>
    <text x="125.05896561638747" y="173.78941651431995" fill="white" opacity="0">17%</text>
    <rect x="194.5390625" y="480" width="15" height="15" fill="#487460"></rect>
    <text x="210.5390625" y="496">HDSHDJKA</text>
    <path d="M 136.185835194199 50.45382522947588 A 200 200 0 0 1 199.99999999999997 40 L 200 240 Z" fill="#792839" opacity="1"></path>
    <text x="183.8338121148832" y="141.31537926676162" fill="white" opacity="0">5%</text>
    <rect x="301.7734375" y="480" width="15" height="15" fill="#792839"></rect>
    <text x="317.7734375" y="496">EYWYE</text>
</svg>